<svg xmlns="http://www.w3.org/2000/svg" width="21.546" height="19.037" viewBox="0 0 21.546 19.037">
  <g id="pixel-lupa" transform="translate(-677.45 -289.926)">
    <line id="Linha_9" data-name="Linha 9" x2="10" transform="matrix(0.809, 0.588, -0.588, 0.809, 690.319, 302.276)" fill="none" stroke="#222" stroke-width="2"/>
    <line id="Linha_5" data-name="Linha 5" y2="9" transform="matrix(0.809, 0.588, -0.588, 0.809, 683.549, 291.178)" fill="none" stroke="#222" stroke-width="2"/>
    <line id="Linha_6" data-name="Linha 6" x2="8" transform="matrix(0.809, 0.588, -0.588, 0.809, 686.343, 290.735)" fill="none" stroke="#222" stroke-width="2"/>
    <line id="Linha_7" data-name="Linha 7" x2="8" transform="matrix(0.809, 0.588, -0.588, 0.809, 678.702, 301.252)" fill="none" stroke="#222" stroke-width="2"/>
    <line id="Linha_8" data-name="Linha 8" y2="9" transform="matrix(0.809, 0.588, -0.588, 0.809, 693.258, 298.231)" fill="none" stroke="#222" stroke-width="2"/>
    <g id="Retângulo_149" data-name="Retângulo 149" transform="matrix(0.809, 0.588, -0.588, 0.809, 684.835, 290.258)" fill="#222" stroke="#222" stroke-width="1">
      <rect width="2" height="2" stroke="none"/>
      <rect x="0.5" y="0.5" width="1" height="1" fill="none"/>
    </g>
    <g id="Retângulo_150" data-name="Retângulo 150" transform="matrix(0.809, 0.588, -0.588, 0.809, 692.117, 295.548)" fill="#222" stroke="#222" stroke-width="1">
      <rect width="2" height="2" stroke="none"/>
      <rect x="0.5" y="0.5" width="1" height="1" fill="none"/>
    </g>
    <g id="Retângulo_151" data-name="Retângulo 151" transform="matrix(0.809, 0.588, -0.588, 0.809, 678.958, 298.348)" fill="#222" stroke="#222" stroke-width="1">
      <rect width="2" height="2" stroke="none"/>
      <rect x="0.5" y="0.5" width="1" height="1" fill="none"/>
    </g>
    <g id="Retângulo_152" data-name="Retângulo 152" transform="matrix(0.809, 0.588, -0.588, 0.809, 686.239, 303.638)" fill="#222" stroke="#222" stroke-width="1">
      <rect width="2" height="2" stroke="none"/>
      <rect x="0.5" y="0.5" width="1" height="1" fill="none"/>
    </g>
  </g>
</svg>
